<svg width="67" height="77" viewBox="0 0 67 77" fill="none" xmlns="http://www.w3.org/2000/svg">
<mask id="mask0_196_1035" style="mask-type:alpha" maskUnits="userSpaceOnUse" x="34" y="23" width="34" height="52">
<rect width="37.782" height="37.7449" rx="7" transform="matrix(0.866309 -0.499509 2.20594e-08 1 34.2693 39.2552)" fill="#0070FF"/>
</mask>
<g mask="url(#mask0_196_1035)">
<rect width="75.4899" height="75.564" rx="7" transform="matrix(-1.58454e-08 1 -0.866309 0.499509 67.0007 20.3828)" fill="#0070FF"/>
</g>
<mask id="mask1_196_1035" style="mask-type:alpha" maskUnits="userSpaceOnUse" x="0" y="22" width="33" height="53">
<rect width="37.782" height="37.7449" rx="7" transform="matrix(-0.866309 -0.499509 -2.20594e-08 1 32.7308 39.2014)" fill="#0070FF"/>
</mask>
<g mask="url(#mask1_196_1035)">
<rect width="75.4899" height="75.564" rx="7" transform="matrix(1.58454e-08 1 0.866309 0.499509 -0.000488281 20.3291)" fill="#0070FF"/>
</g>
<mask id="mask2_196_1035" style="mask-type:alpha" maskUnits="userSpaceOnUse" x="4" y="2" width="59" height="34">
<rect width="37.782" height="37.782" rx="7" transform="matrix(0.866309 0.499509 -0.866309 0.499509 33.6147 0)" fill="#0070FF"/>
</mask>
<g mask="url(#mask2_196_1035)">
<rect width="75.564" height="75.564" rx="7" transform="matrix(-0.866309 0.499509 -0.866309 -0.499509 99.0771 37.7449)" fill="#0070FF"/>
</g>
</svg>
